<svg width="8" height="14" viewBox="0 0 8 14" fill="none" xmlns="http://www.w3.org/2000/svg">
<path d="M6.39986 4.88L1.80986 0.289999C1.6225 0.103748 1.36905 -0.000793457 1.10486 -0.000793457C0.840677 -0.000793457 0.587226 0.103748 0.399863 0.289999C0.306135 0.382962 0.231741 0.493563 0.180972 0.615422C0.130203 0.737282 0.104065 0.867987 0.104065 0.999999C0.104065 1.13201 0.130203 1.26272 0.180972 1.38458C0.231741 1.50644 0.306135 1.61704 0.399863 1.71L4.99986 6.29C5.09359 6.38296 5.16799 6.49356 5.21876 6.61542C5.26952 6.73728 5.29566 6.86799 5.29566 7C5.29566 7.13201 5.26952 7.26272 5.21876 7.38458C5.16799 7.50644 5.09359 7.61704 4.99986 7.71L0.399863 12.29C0.21156 12.477 0.105245 12.7311 0.104307 12.9965C0.103369 13.2618 0.207886 13.5167 0.394864 13.705C0.581842 13.8933 0.835964 13.9996 1.10133 14.0006C1.36669 14.0015 1.62156 13.897 1.80986 13.71L6.39986 9.12C6.96167 8.5575 7.27723 7.795 7.27723 7C7.27723 6.205 6.96167 5.4425 6.39986 4.88Z" fill="#fff"/>
</svg>
