<svg width="3" height="18" viewBox="0 0 3 18" fill="none" xmlns="http://www.w3.org/2000/svg">
<path d="M3 1.5C3 2.32843 2.32843 3 1.5 3C0.671573 3 0 2.32843 0 1.5C0 0.671573 0.671573 0 1.5 0C2.32843 0 3 0.671573 3 1.5Z" fill="white"/>
<path d="M3 8.5C3 9.32843 2.32843 10 1.5 10C0.671573 10 0 9.32843 0 8.5C0 7.67157 0.671573 7 1.5 7C2.32843 7 3 7.67157 3 8.5Z" fill="white"/>
<path d="M3 16.5C3 17.3284 2.32843 18 1.5 18C0.671573 18 0 17.3284 0 16.5C0 15.6716 0.671573 15 1.5 15C2.32843 15 3 15.6716 3 16.5Z" fill="white"/>
</svg>
