<svg width="18" height="16" viewBox="0 0 18 16" fill="none" xmlns="http://www.w3.org/2000/svg">
<path d="M16.3709 1.65842C15.4103 0.701581 14.1416 0.121808 12.7935 0.0237134C11.4455 -0.0743813 10.1071 0.315662 9.0197 1.12346C7.87346 0.265399 6.44675 -0.123689 5.02688 0.0345534C3.60702 0.192796 2.29946 0.886615 1.36752 1.97629C0.435581 3.06597 -0.0515159 4.47056 0.00432013 5.90722C0.0601562 7.34388 0.654777 8.70589 1.66844 9.71897L7.07377 15.2045C7.58053 15.7139 8.26745 16 8.98366 16C9.69987 16 10.3868 15.7139 10.8935 15.2045L16.2989 9.71897C16.8312 9.19549 17.2556 8.57127 17.5475 7.88221C17.8394 7.19315 17.9931 6.45282 17.9998 5.70377C18.0065 4.95473 17.866 4.21173 17.5865 3.51749C17.307 2.82326 16.8939 2.19146 16.3709 1.65842Z" fill="#1ED760"/>
</svg>
